<svg xmlns="http://www.w3.org/2000/svg" xmlns:xlink="http://www.w3.org/1999/xlink" width="14" height="14" viewBox="0 0 14 14"><defs><clipPath id="a"><rect width="14" height="14" transform="translate(276 1545)" fill="#394954" stroke="#707070" stroke-width="1"/></clipPath></defs><g transform="translate(-276 -1545)"><path d="M5.775,1.75a.525.525,0,0,0-.525.525V4.9H4.025A2.633,2.633,0,0,0,1.4,7.525v4.9A2.633,2.633,0,0,0,4.025,15.05h8.75A2.633,2.633,0,0,0,15.4,12.425v-4.9A2.633,2.633,0,0,0,12.775,4.9H11.55V2.275a.525.525,0,0,0-.525-.525ZM6.3,2.8h4.2V4.9H6.3ZM4.025,5.95h8.75A1.567,1.567,0,0,1,14.35,7.525v4.9A1.567,1.567,0,0,1,12.775,14H4.025A1.567,1.567,0,0,1,2.45,12.425v-4.9A1.567,1.567,0,0,1,4.025,5.95Z" transform="translate(274.6 1543.6)"/></g></svg>