<svg xmlns="http://www.w3.org/2000/svg" xmlns:xlink="http://www.w3.org/1999/xlink" width="14" height="14" viewBox="0 0 14 14"><defs><clipPath id="a"><rect width="14" height="14" transform="translate(276 1545)" fill="#394954" stroke="#707070" stroke-width="1"/></clipPath></defs><g transform="translate(-276 -1545)" ><path d="M8.4,1.4a5.948,5.948,0,0,0-4.524,9.814l0,0,0,0s2.532,2.889,3.433,3.749a1.581,1.581,0,0,0,2.171,0c1.027-.98,3.435-3.751,3.435-3.751v0l0,0A5.947,5.947,0,0,0,8.4,1.4Zm0,1.05a4.9,4.9,0,0,1,3.725,8.081c0,.005-2.468,2.822-3.364,3.677a.512.512,0,0,1-.721,0c-.749-.715-3.357-3.669-3.364-3.677h0A4.9,4.9,0,0,1,8.4,2.451Zm0,2.8a2.085,2.085,0,0,0-1.574.669,2.21,2.21,0,0,0,0,2.864A2.085,2.085,0,0,0,8.4,9.453a2.085,2.085,0,0,0,1.574-.669,2.21,2.21,0,0,0,0-2.864A2.085,2.085,0,0,0,8.4,5.251Zm0,1.05a.968.968,0,0,1,.789.316,1.163,1.163,0,0,1,0,1.469A.968.968,0,0,1,8.4,8.4a.968.968,0,0,1-.789-.316,1.163,1.163,0,0,1,0-1.469A.968.968,0,0,1,8.4,6.3Z" transform="translate(274.598 1543.6)"/></g></svg>