<svg xmlns="http://www.w3.org/2000/svg" xmlns:xlink="http://www.w3.org/1999/xlink" width="14" height="14" viewBox="0 0 14 14"><defs><clipPath id="a"><rect width="14" height="14" transform="translate(276 1545)" fill="#394954" stroke="#707070" stroke-width="1"/></clipPath></defs><g transform="translate(-276 -1545)" clip-path="url(#a)"><path d="M7.341,1.024a.512.512,0,1,0,0,1.024h.341v.709a6.153,6.153,0,1,0,5.2,2.156l.623-.624a.512.512,0,1,0-.724-.724l-.624.623A6.113,6.113,0,0,0,8.707,2.758V2.049h.341a.512.512,0,1,0,0-1.024Zm.793,2.735a.512.512,0,0,0,.124,0A5.1,5.1,0,0,1,11.79,5.227a.513.513,0,0,0,.054.054A5.125,5.125,0,1,1,8.134,3.759ZM10.4,6.142a.512.512,0,0,0-.352.155L8.459,7.89a1.023,1.023,0,1,0,.725.724l1.593-1.593a.512.512,0,0,0-.372-.879Z" transform="translate(274.805 1543.976)"/></g></svg>